<mxfile host="app.diagrams.net" modified="2024-05-22T18:00:14.842Z" agent="Mozilla/5.0 (Windows NT 10.0; Win64; x64) AppleWebKit/537.36 (KHTML, like Gecko) Chrome/125.0.0.0 Safari/537.36 Edg/125.0.0.0" etag="gDTC8Hf6GGTtjJr3NN5y" version="24.4.4" type="device">
  <diagram name="Page-1" id="H7t-dUFf2n9kFHn4z99p">
    <mxGraphModel dx="1042" dy="543" grid="1" gridSize="10" guides="1" tooltips="1" connect="1" arrows="1" fold="1" page="1" pageScale="1" pageWidth="827" pageHeight="1169" math="0" shadow="0">
      <root>
        <mxCell id="0" />
        <mxCell id="1" parent="0" />
        <mxCell id="RxxKn82uDPs_Dax8n509-1" value="1" style="ellipse;whiteSpace=wrap;html=1;aspect=fixed;" vertex="1" parent="1">
          <mxGeometry x="380" y="30" width="40" height="40" as="geometry" />
        </mxCell>
        <mxCell id="RxxKn82uDPs_Dax8n509-2" value="2" style="ellipse;whiteSpace=wrap;html=1;aspect=fixed;" vertex="1" parent="1">
          <mxGeometry x="380" y="130" width="40" height="40" as="geometry" />
        </mxCell>
        <mxCell id="RxxKn82uDPs_Dax8n509-3" value="3" style="ellipse;whiteSpace=wrap;html=1;aspect=fixed;" vertex="1" parent="1">
          <mxGeometry x="460" y="220" width="40" height="40" as="geometry" />
        </mxCell>
        <mxCell id="RxxKn82uDPs_Dax8n509-4" value="4&lt;span style=&quot;color: rgba(0, 0, 0, 0); font-family: monospace; font-size: 0px; text-align: start; text-wrap: nowrap;&quot;&gt;%3CmxGraphModel%3E%3Croot%3E%3CmxCell%20id%3D%220%22%2F%3E%3CmxCell%20id%3D%221%22%20parent%3D%220%22%2F%3E%3CmxCell%20id%3D%222%22%20value%3D%221%22%20style%3D%22ellipse%3BwhiteSpace%3Dwrap%3Bhtml%3D1%3Baspect%3Dfixed%3B%22%20vertex%3D%221%22%20parent%3D%221%22%3E%3CmxGeometry%20x%3D%22385%22%20y%3D%2230%22%20width%3D%2240%22%20height%3D%2240%22%20as%3D%22geometry%22%2F%3E%3C%2FmxCell%3E%3C%2Froot%3E%3C%2FmxGraphModel%3E&lt;/span&gt;" style="ellipse;whiteSpace=wrap;html=1;aspect=fixed;" vertex="1" parent="1">
          <mxGeometry x="340" y="210" width="40" height="40" as="geometry" />
        </mxCell>
        <mxCell id="RxxKn82uDPs_Dax8n509-5" value="5.1&lt;div&gt;init&lt;/div&gt;" style="ellipse;whiteSpace=wrap;html=1;aspect=fixed;" vertex="1" parent="1">
          <mxGeometry x="340" y="330" width="40" height="40" as="geometry" />
        </mxCell>
        <mxCell id="RxxKn82uDPs_Dax8n509-6" value="5.2&lt;div&gt;cond.&lt;/div&gt;" style="ellipse;whiteSpace=wrap;html=1;aspect=fixed;" vertex="1" parent="1">
          <mxGeometry x="340" y="410" width="40" height="40" as="geometry" />
        </mxCell>
        <mxCell id="RxxKn82uDPs_Dax8n509-7" value="6" style="ellipse;whiteSpace=wrap;html=1;aspect=fixed;" vertex="1" parent="1">
          <mxGeometry x="340" y="500" width="40" height="40" as="geometry" />
        </mxCell>
        <mxCell id="RxxKn82uDPs_Dax8n509-8" value="" style="endArrow=block;html=1;rounded=0;strokeWidth=2;endFill=1;exitX=0.5;exitY=1;exitDx=0;exitDy=0;entryX=0.5;entryY=0;entryDx=0;entryDy=0;" edge="1" parent="1" source="RxxKn82uDPs_Dax8n509-1" target="RxxKn82uDPs_Dax8n509-2">
          <mxGeometry width="50" height="50" relative="1" as="geometry">
            <mxPoint x="410" y="80" as="sourcePoint" />
            <mxPoint x="460" y="140" as="targetPoint" />
          </mxGeometry>
        </mxCell>
        <mxCell id="RxxKn82uDPs_Dax8n509-11" value="exit" style="ellipse;whiteSpace=wrap;html=1;aspect=fixed;" vertex="1" parent="1">
          <mxGeometry x="630" y="220" width="40" height="40" as="geometry" />
        </mxCell>
        <mxCell id="RxxKn82uDPs_Dax8n509-12" value="" style="endArrow=block;html=1;rounded=0;strokeWidth=2;endFill=1;exitX=1;exitY=1;exitDx=0;exitDy=0;entryX=0;entryY=0.5;entryDx=0;entryDy=0;" edge="1" parent="1" source="RxxKn82uDPs_Dax8n509-2" target="RxxKn82uDPs_Dax8n509-3">
          <mxGeometry width="50" height="50" relative="1" as="geometry">
            <mxPoint x="410" y="80" as="sourcePoint" />
            <mxPoint x="410" y="140" as="targetPoint" />
          </mxGeometry>
        </mxCell>
        <mxCell id="RxxKn82uDPs_Dax8n509-14" value="" style="endArrow=block;html=1;rounded=0;strokeWidth=2;endFill=1;entryX=0.5;entryY=0;entryDx=0;entryDy=0;exitX=0;exitY=1;exitDx=0;exitDy=0;" edge="1" parent="1" source="RxxKn82uDPs_Dax8n509-2" target="RxxKn82uDPs_Dax8n509-4">
          <mxGeometry width="50" height="50" relative="1" as="geometry">
            <mxPoint x="380" y="170" as="sourcePoint" />
            <mxPoint x="380" y="220" as="targetPoint" />
          </mxGeometry>
        </mxCell>
        <mxCell id="RxxKn82uDPs_Dax8n509-15" value="" style="endArrow=block;html=1;rounded=0;strokeWidth=2;endFill=1;exitX=0.5;exitY=1;exitDx=0;exitDy=0;entryX=0.5;entryY=0;entryDx=0;entryDy=0;" edge="1" parent="1" source="RxxKn82uDPs_Dax8n509-4" target="RxxKn82uDPs_Dax8n509-5">
          <mxGeometry width="50" height="50" relative="1" as="geometry">
            <mxPoint x="430" y="100" as="sourcePoint" />
            <mxPoint x="430" y="160" as="targetPoint" />
          </mxGeometry>
        </mxCell>
        <mxCell id="RxxKn82uDPs_Dax8n509-16" value="" style="endArrow=block;html=1;rounded=0;strokeWidth=2;endFill=1;entryX=0;entryY=0.5;entryDx=0;entryDy=0;exitX=1;exitY=0.5;exitDx=0;exitDy=0;" edge="1" parent="1" source="RxxKn82uDPs_Dax8n509-3" target="RxxKn82uDPs_Dax8n509-11">
          <mxGeometry width="50" height="50" relative="1" as="geometry">
            <mxPoint x="530" y="180" as="sourcePoint" />
            <mxPoint x="510" y="310" as="targetPoint" />
          </mxGeometry>
        </mxCell>
        <mxCell id="RxxKn82uDPs_Dax8n509-18" value="" style="endArrow=block;html=1;rounded=0;strokeWidth=2;endFill=1;exitX=0.5;exitY=1;exitDx=0;exitDy=0;entryX=0.5;entryY=0;entryDx=0;entryDy=0;" edge="1" parent="1" source="RxxKn82uDPs_Dax8n509-5" target="RxxKn82uDPs_Dax8n509-6">
          <mxGeometry width="50" height="50" relative="1" as="geometry">
            <mxPoint x="370" y="260" as="sourcePoint" />
            <mxPoint x="370" y="320" as="targetPoint" />
          </mxGeometry>
        </mxCell>
        <mxCell id="RxxKn82uDPs_Dax8n509-19" value="" style="endArrow=block;html=1;rounded=0;strokeWidth=2;endFill=1;exitX=0.5;exitY=1;exitDx=0;exitDy=0;entryX=0.5;entryY=0;entryDx=0;entryDy=0;" edge="1" parent="1" source="RxxKn82uDPs_Dax8n509-6" target="RxxKn82uDPs_Dax8n509-7">
          <mxGeometry width="50" height="50" relative="1" as="geometry">
            <mxPoint x="390" y="460" as="sourcePoint" />
            <mxPoint x="390" y="520" as="targetPoint" />
          </mxGeometry>
        </mxCell>
        <mxCell id="RxxKn82uDPs_Dax8n509-22" value="12.1&lt;div&gt;init&lt;/div&gt;" style="ellipse;whiteSpace=wrap;html=1;aspect=fixed;" vertex="1" parent="1">
          <mxGeometry x="380" y="910" width="40" height="40" as="geometry" />
        </mxCell>
        <mxCell id="RxxKn82uDPs_Dax8n509-23" value="7" style="ellipse;whiteSpace=wrap;html=1;aspect=fixed;" vertex="1" parent="1">
          <mxGeometry x="340" y="580" width="40" height="40" as="geometry" />
        </mxCell>
        <mxCell id="RxxKn82uDPs_Dax8n509-24" value="8" style="ellipse;whiteSpace=wrap;html=1;aspect=fixed;" vertex="1" parent="1">
          <mxGeometry x="434" y="640" width="40" height="40" as="geometry" />
        </mxCell>
        <mxCell id="RxxKn82uDPs_Dax8n509-25" value="9" style="ellipse;whiteSpace=wrap;html=1;aspect=fixed;" vertex="1" parent="1">
          <mxGeometry x="310" y="720" width="40" height="40" as="geometry" />
        </mxCell>
        <mxCell id="RxxKn82uDPs_Dax8n509-26" value="10" style="ellipse;whiteSpace=wrap;html=1;aspect=fixed;" vertex="1" parent="1">
          <mxGeometry x="380" y="800" width="40" height="40" as="geometry" />
        </mxCell>
        <mxCell id="RxxKn82uDPs_Dax8n509-27" value="" style="endArrow=block;html=1;rounded=0;strokeWidth=2;endFill=1;exitX=0.5;exitY=1;exitDx=0;exitDy=0;entryX=0.5;entryY=0;entryDx=0;entryDy=0;" edge="1" parent="1" source="RxxKn82uDPs_Dax8n509-7" target="RxxKn82uDPs_Dax8n509-23">
          <mxGeometry width="50" height="50" relative="1" as="geometry">
            <mxPoint x="370" y="360" as="sourcePoint" />
            <mxPoint x="370" y="420" as="targetPoint" />
          </mxGeometry>
        </mxCell>
        <mxCell id="RxxKn82uDPs_Dax8n509-28" value="" style="endArrow=block;html=1;rounded=0;strokeWidth=2;endFill=1;exitX=1;exitY=1;exitDx=0;exitDy=0;entryX=0;entryY=0;entryDx=0;entryDy=0;" edge="1" parent="1" source="RxxKn82uDPs_Dax8n509-23" target="RxxKn82uDPs_Dax8n509-24">
          <mxGeometry width="50" height="50" relative="1" as="geometry">
            <mxPoint x="424" y="530" as="sourcePoint" />
            <mxPoint x="360" y="595" as="targetPoint" />
          </mxGeometry>
        </mxCell>
        <mxCell id="RxxKn82uDPs_Dax8n509-29" value="" style="endArrow=block;html=1;rounded=0;strokeWidth=2;endFill=1;exitX=0;exitY=1;exitDx=0;exitDy=0;entryX=1;entryY=0;entryDx=0;entryDy=0;" edge="1" parent="1" source="RxxKn82uDPs_Dax8n509-24" target="RxxKn82uDPs_Dax8n509-25">
          <mxGeometry width="50" height="50" relative="1" as="geometry">
            <mxPoint x="414" y="660" as="sourcePoint" />
            <mxPoint x="350" y="725" as="targetPoint" />
          </mxGeometry>
        </mxCell>
        <mxCell id="RxxKn82uDPs_Dax8n509-30" value="12.2&lt;div&gt;cond.&lt;/div&gt;" style="ellipse;whiteSpace=wrap;html=1;aspect=fixed;" vertex="1" parent="1">
          <mxGeometry x="380" y="980" width="40" height="40" as="geometry" />
        </mxCell>
        <mxCell id="RxxKn82uDPs_Dax8n509-31" value="" style="endArrow=block;html=1;rounded=0;strokeWidth=2;endFill=1;exitX=1;exitY=1;exitDx=0;exitDy=0;entryX=0.5;entryY=0;entryDx=0;entryDy=0;" edge="1" parent="1" source="RxxKn82uDPs_Dax8n509-25" target="RxxKn82uDPs_Dax8n509-26">
          <mxGeometry width="50" height="50" relative="1" as="geometry">
            <mxPoint x="340" y="770" as="sourcePoint" />
            <mxPoint x="340" y="830" as="targetPoint" />
          </mxGeometry>
        </mxCell>
        <mxCell id="RxxKn82uDPs_Dax8n509-32" value="" style="endArrow=block;html=1;rounded=0;strokeWidth=2;endFill=1;exitX=0.5;exitY=1;exitDx=0;exitDy=0;entryX=0.5;entryY=0;entryDx=0;entryDy=0;" edge="1" parent="1" source="RxxKn82uDPs_Dax8n509-26" target="RxxKn82uDPs_Dax8n509-22">
          <mxGeometry width="50" height="50" relative="1" as="geometry">
            <mxPoint x="453.5" y="870" as="sourcePoint" />
            <mxPoint x="453.5" y="930" as="targetPoint" />
          </mxGeometry>
        </mxCell>
        <mxCell id="RxxKn82uDPs_Dax8n509-33" value="" style="endArrow=block;html=1;rounded=0;strokeWidth=2;endFill=1;exitX=0.5;exitY=1;exitDx=0;exitDy=0;entryX=0.5;entryY=0;entryDx=0;entryDy=0;" edge="1" parent="1" source="RxxKn82uDPs_Dax8n509-22" target="RxxKn82uDPs_Dax8n509-30">
          <mxGeometry width="50" height="50" relative="1" as="geometry">
            <mxPoint x="510" y="720" as="sourcePoint" />
            <mxPoint x="510" y="780" as="targetPoint" />
          </mxGeometry>
        </mxCell>
        <mxCell id="RxxKn82uDPs_Dax8n509-34" value="" style="endArrow=block;html=1;rounded=0;strokeWidth=2;endFill=1;exitX=0.5;exitY=1;exitDx=0;exitDy=0;entryX=0.5;entryY=0;entryDx=0;entryDy=0;" edge="1" parent="1" source="RxxKn82uDPs_Dax8n509-30" target="RxxKn82uDPs_Dax8n509-35">
          <mxGeometry width="50" height="50" relative="1" as="geometry">
            <mxPoint x="520" y="968" as="sourcePoint" />
            <mxPoint x="500" y="1168.7999267578125" as="targetPoint" />
          </mxGeometry>
        </mxCell>
        <mxCell id="RxxKn82uDPs_Dax8n509-35" value="13" style="ellipse;whiteSpace=wrap;html=1;aspect=fixed;" vertex="1" parent="1">
          <mxGeometry x="380" y="1060" width="40" height="40" as="geometry" />
        </mxCell>
        <mxCell id="RxxKn82uDPs_Dax8n509-36" value="14" style="ellipse;whiteSpace=wrap;html=1;aspect=fixed;" vertex="1" parent="1">
          <mxGeometry x="380" y="1140" width="40" height="40" as="geometry" />
        </mxCell>
        <mxCell id="RxxKn82uDPs_Dax8n509-37" value="12.3&lt;div&gt;j++&lt;/div&gt;" style="ellipse;whiteSpace=wrap;html=1;aspect=fixed;" vertex="1" parent="1">
          <mxGeometry x="380" y="1220" width="40" height="40" as="geometry" />
        </mxCell>
        <mxCell id="RxxKn82uDPs_Dax8n509-38" value="16" style="ellipse;whiteSpace=wrap;html=1;aspect=fixed;" vertex="1" parent="1">
          <mxGeometry x="394" y="1300" width="40" height="40" as="geometry" />
        </mxCell>
        <mxCell id="RxxKn82uDPs_Dax8n509-39" value="" style="endArrow=block;html=1;rounded=0;strokeWidth=2;endFill=1;exitX=0.5;exitY=1;exitDx=0;exitDy=0;entryX=0.5;entryY=0;entryDx=0;entryDy=0;" edge="1" parent="1" source="RxxKn82uDPs_Dax8n509-35" target="RxxKn82uDPs_Dax8n509-36">
          <mxGeometry width="50" height="50" relative="1" as="geometry">
            <mxPoint x="410" y="1030" as="sourcePoint" />
            <mxPoint x="450" y="1070" as="targetPoint" />
          </mxGeometry>
        </mxCell>
        <mxCell id="RxxKn82uDPs_Dax8n509-40" value="" style="endArrow=none;html=1;rounded=0;strokeWidth=2;endFill=0;entryX=0;entryY=0.5;entryDx=0;entryDy=0;exitX=0;exitY=0.5;exitDx=0;exitDy=0;startArrow=block;startFill=1;" edge="1" parent="1" source="RxxKn82uDPs_Dax8n509-30" target="RxxKn82uDPs_Dax8n509-37">
          <mxGeometry width="50" height="50" relative="1" as="geometry">
            <mxPoint x="160" y="1000" as="sourcePoint" />
            <mxPoint x="450" y="1070" as="targetPoint" />
            <Array as="points">
              <mxPoint x="260" y="1000" />
              <mxPoint x="260" y="1240" />
            </Array>
          </mxGeometry>
        </mxCell>
        <mxCell id="RxxKn82uDPs_Dax8n509-41" value="" style="endArrow=block;html=1;rounded=0;strokeWidth=2;endFill=1;entryX=1;entryY=0;entryDx=0;entryDy=0;exitX=1;exitY=0.5;exitDx=0;exitDy=0;startArrow=none;startFill=0;" edge="1" parent="1" source="RxxKn82uDPs_Dax8n509-30" target="RxxKn82uDPs_Dax8n509-38">
          <mxGeometry width="50" height="50" relative="1" as="geometry">
            <mxPoint x="640" y="1030" as="sourcePoint" />
            <mxPoint x="654" y="1260" as="targetPoint" />
            <Array as="points">
              <mxPoint x="520" y="1030" />
              <mxPoint x="520" y="1260" />
            </Array>
          </mxGeometry>
        </mxCell>
        <mxCell id="RxxKn82uDPs_Dax8n509-42" value="" style="endArrow=block;html=1;rounded=0;strokeWidth=2;endFill=1;exitX=0.5;exitY=1;exitDx=0;exitDy=0;entryX=0.5;entryY=0;entryDx=0;entryDy=0;" edge="1" parent="1" source="RxxKn82uDPs_Dax8n509-36" target="RxxKn82uDPs_Dax8n509-37">
          <mxGeometry width="50" height="50" relative="1" as="geometry">
            <mxPoint x="410" y="1030" as="sourcePoint" />
            <mxPoint x="450" y="1070" as="targetPoint" />
          </mxGeometry>
        </mxCell>
        <mxCell id="RxxKn82uDPs_Dax8n509-45" value="" style="endArrow=block;html=1;rounded=0;strokeWidth=2;endFill=1;exitX=1;exitY=0.5;exitDx=0;exitDy=0;entryX=0.5;entryY=1;entryDx=0;entryDy=0;" edge="1" parent="1" source="RxxKn82uDPs_Dax8n509-36" target="RxxKn82uDPs_Dax8n509-11">
          <mxGeometry width="50" height="50" relative="1" as="geometry">
            <mxPoint x="590" y="1190" as="sourcePoint" />
            <mxPoint x="740" y="1150" as="targetPoint" />
            <Array as="points">
              <mxPoint x="650" y="1160" />
            </Array>
          </mxGeometry>
        </mxCell>
        <mxCell id="RxxKn82uDPs_Dax8n509-46" value="17" style="ellipse;whiteSpace=wrap;html=1;aspect=fixed;" vertex="1" parent="1">
          <mxGeometry x="450" y="1380" width="40" height="40" as="geometry" />
        </mxCell>
        <mxCell id="RxxKn82uDPs_Dax8n509-47" value="18, 19" style="ellipse;whiteSpace=wrap;html=1;aspect=fixed;" vertex="1" parent="1">
          <mxGeometry x="275" y="1430" width="40" height="40" as="geometry" />
        </mxCell>
        <mxCell id="RxxKn82uDPs_Dax8n509-48" value="" style="endArrow=block;html=1;rounded=0;strokeWidth=2;endFill=1;exitX=0;exitY=1;exitDx=0;exitDy=0;entryX=0.5;entryY=0;entryDx=0;entryDy=0;" edge="1" parent="1" source="RxxKn82uDPs_Dax8n509-38" target="RxxKn82uDPs_Dax8n509-47">
          <mxGeometry width="50" height="50" relative="1" as="geometry">
            <mxPoint x="370" y="1349" as="sourcePoint" />
            <mxPoint x="376" y="1400" as="targetPoint" />
          </mxGeometry>
        </mxCell>
        <mxCell id="RxxKn82uDPs_Dax8n509-49" value="" style="endArrow=block;html=1;rounded=0;strokeWidth=2;endFill=1;entryX=0;entryY=0;entryDx=0;entryDy=0;" edge="1" parent="1" source="RxxKn82uDPs_Dax8n509-38" target="RxxKn82uDPs_Dax8n509-46">
          <mxGeometry width="50" height="50" relative="1" as="geometry">
            <mxPoint x="410" y="1344" as="sourcePoint" />
            <mxPoint x="500" y="1440" as="targetPoint" />
          </mxGeometry>
        </mxCell>
        <mxCell id="RxxKn82uDPs_Dax8n509-50" value="" style="endArrow=block;html=1;rounded=0;strokeWidth=2;endFill=1;entryX=0;entryY=0.5;entryDx=0;entryDy=0;exitX=0;exitY=0.5;exitDx=0;exitDy=0;" edge="1" parent="1" source="RxxKn82uDPs_Dax8n509-25" target="RxxKn82uDPs_Dax8n509-51">
          <mxGeometry width="50" height="50" relative="1" as="geometry">
            <mxPoint x="160" y="771.199951171875" as="sourcePoint" />
            <mxPoint x="244" y="1606" as="targetPoint" />
            <Array as="points">
              <mxPoint x="170" y="740" />
              <mxPoint x="170" y="1540" />
            </Array>
          </mxGeometry>
        </mxCell>
        <mxCell id="RxxKn82uDPs_Dax8n509-51" value="20, 21" style="ellipse;whiteSpace=wrap;html=1;aspect=fixed;" vertex="1" parent="1">
          <mxGeometry x="210" y="1520" width="40" height="40" as="geometry" />
        </mxCell>
        <mxCell id="RxxKn82uDPs_Dax8n509-52" value="" style="endArrow=block;html=1;rounded=0;strokeWidth=2;endFill=1;exitX=1;exitY=0.5;exitDx=0;exitDy=0;entryX=0;entryY=1;entryDx=0;entryDy=0;" edge="1" parent="1" source="RxxKn82uDPs_Dax8n509-51" target="RxxKn82uDPs_Dax8n509-11">
          <mxGeometry width="50" height="50" relative="1" as="geometry">
            <mxPoint x="317" y="1539" as="sourcePoint" />
            <mxPoint x="553" y="760" as="targetPoint" />
            <Array as="points">
              <mxPoint x="620" y="1540" />
            </Array>
          </mxGeometry>
        </mxCell>
        <mxCell id="RxxKn82uDPs_Dax8n509-54" value="22" style="ellipse;whiteSpace=wrap;html=1;aspect=fixed;" vertex="1" parent="1">
          <mxGeometry x="275" y="1620" width="40" height="40" as="geometry" />
        </mxCell>
        <mxCell id="RxxKn82uDPs_Dax8n509-55" value="23" style="ellipse;whiteSpace=wrap;html=1;aspect=fixed;" vertex="1" parent="1">
          <mxGeometry x="360" y="1690" width="40" height="40" as="geometry" />
        </mxCell>
        <mxCell id="RxxKn82uDPs_Dax8n509-56" value="5.3&lt;div&gt;i++&lt;/div&gt;" style="ellipse;whiteSpace=wrap;html=1;aspect=fixed;" vertex="1" parent="1">
          <mxGeometry x="220" y="1730" width="40" height="40" as="geometry" />
        </mxCell>
        <mxCell id="RxxKn82uDPs_Dax8n509-57" value="24" style="ellipse;whiteSpace=wrap;html=1;aspect=fixed;" vertex="1" parent="1">
          <mxGeometry x="270" y="1800" width="40" height="40" as="geometry" />
        </mxCell>
        <mxCell id="RxxKn82uDPs_Dax8n509-58" value="25" style="ellipse;whiteSpace=wrap;html=1;aspect=fixed;" vertex="1" parent="1">
          <mxGeometry x="330" y="1870" width="40" height="40" as="geometry" />
        </mxCell>
        <mxCell id="RxxKn82uDPs_Dax8n509-59" value="26, 27" style="ellipse;whiteSpace=wrap;html=1;aspect=fixed;" vertex="1" parent="1">
          <mxGeometry x="230" y="1930" width="40" height="40" as="geometry" />
        </mxCell>
        <mxCell id="RxxKn82uDPs_Dax8n509-61" value="" style="endArrow=block;html=1;rounded=0;strokeWidth=2;endFill=1;exitX=1;exitY=1;exitDx=0;exitDy=0;entryX=0;entryY=0.5;entryDx=0;entryDy=0;" edge="1" parent="1" source="RxxKn82uDPs_Dax8n509-54" target="RxxKn82uDPs_Dax8n509-55">
          <mxGeometry width="50" height="50" relative="1" as="geometry">
            <mxPoint x="286" y="1564" as="sourcePoint" />
            <mxPoint x="264" y="1626" as="targetPoint" />
          </mxGeometry>
        </mxCell>
        <mxCell id="RxxKn82uDPs_Dax8n509-62" value="" style="endArrow=block;html=1;rounded=0;strokeWidth=2;endFill=1;exitX=0;exitY=1;exitDx=0;exitDy=0;entryX=1;entryY=0;entryDx=0;entryDy=0;" edge="1" parent="1" source="RxxKn82uDPs_Dax8n509-55" target="RxxKn82uDPs_Dax8n509-56">
          <mxGeometry width="50" height="50" relative="1" as="geometry">
            <mxPoint x="296" y="1574" as="sourcePoint" />
            <mxPoint x="274" y="1636" as="targetPoint" />
          </mxGeometry>
        </mxCell>
        <mxCell id="RxxKn82uDPs_Dax8n509-63" value="" style="endArrow=none;html=1;rounded=0;strokeWidth=2;endFill=0;entryX=0;entryY=0.5;entryDx=0;entryDy=0;exitX=0;exitY=0.5;exitDx=0;exitDy=0;startArrow=block;startFill=1;" edge="1" parent="1" source="RxxKn82uDPs_Dax8n509-6" target="RxxKn82uDPs_Dax8n509-56">
          <mxGeometry width="50" height="50" relative="1" as="geometry">
            <mxPoint x="190" y="1514" as="sourcePoint" />
            <mxPoint x="190" y="1754" as="targetPoint" />
            <Array as="points">
              <mxPoint x="140" y="430" />
              <mxPoint x="140" y="1750" />
            </Array>
          </mxGeometry>
        </mxCell>
        <mxCell id="RxxKn82uDPs_Dax8n509-64" value="" style="endArrow=block;html=1;rounded=0;strokeWidth=2;endFill=1;exitX=0;exitY=1;exitDx=0;exitDy=0;entryX=0.5;entryY=0;entryDx=0;entryDy=0;" edge="1" parent="1" source="RxxKn82uDPs_Dax8n509-54" target="RxxKn82uDPs_Dax8n509-56">
          <mxGeometry width="50" height="50" relative="1" as="geometry">
            <mxPoint x="210" y="1658" as="sourcePoint" />
            <mxPoint x="188" y="1720" as="targetPoint" />
          </mxGeometry>
        </mxCell>
        <mxCell id="RxxKn82uDPs_Dax8n509-65" value="" style="endArrow=block;html=1;rounded=0;strokeWidth=2;endFill=1;exitX=1;exitY=1;exitDx=0;exitDy=0;entryX=0;entryY=0;entryDx=0;entryDy=0;" edge="1" parent="1" source="RxxKn82uDPs_Dax8n509-57" target="RxxKn82uDPs_Dax8n509-58">
          <mxGeometry width="50" height="50" relative="1" as="geometry">
            <mxPoint x="309" y="1840" as="sourcePoint" />
            <mxPoint x="309" y="1910" as="targetPoint" />
          </mxGeometry>
        </mxCell>
        <mxCell id="RxxKn82uDPs_Dax8n509-66" value="" style="endArrow=block;html=1;rounded=0;strokeWidth=2;endFill=1;exitX=0;exitY=1;exitDx=0;exitDy=0;entryX=0.5;entryY=0;entryDx=0;entryDy=0;" edge="1" parent="1" source="RxxKn82uDPs_Dax8n509-57" target="RxxKn82uDPs_Dax8n509-59">
          <mxGeometry width="50" height="50" relative="1" as="geometry">
            <mxPoint x="228" y="1844" as="sourcePoint" />
            <mxPoint x="260" y="1886" as="targetPoint" />
          </mxGeometry>
        </mxCell>
        <mxCell id="RxxKn82uDPs_Dax8n509-67" value="" style="endArrow=block;html=1;rounded=0;strokeWidth=2;endFill=1;exitX=1;exitY=0.5;exitDx=0;exitDy=0;entryX=1;entryY=0.5;entryDx=0;entryDy=0;" edge="1" parent="1" source="RxxKn82uDPs_Dax8n509-6" target="RxxKn82uDPs_Dax8n509-57">
          <mxGeometry width="50" height="50" relative="1" as="geometry">
            <mxPoint x="520" y="420" as="sourcePoint" />
            <mxPoint x="610" y="1870" as="targetPoint" />
            <Array as="points">
              <mxPoint x="560" y="430" />
              <mxPoint x="560" y="1820" />
            </Array>
          </mxGeometry>
        </mxCell>
        <mxCell id="RxxKn82uDPs_Dax8n509-68" value="" style="endArrow=block;html=1;rounded=0;strokeWidth=2;endFill=1;exitX=1;exitY=0.5;exitDx=0;exitDy=0;entryX=1;entryY=0.5;entryDx=0;entryDy=0;" edge="1" parent="1" source="RxxKn82uDPs_Dax8n509-59" target="RxxKn82uDPs_Dax8n509-11">
          <mxGeometry width="50" height="50" relative="1" as="geometry">
            <mxPoint x="298" y="2010" as="sourcePoint" />
            <mxPoint x="740" y="270" as="targetPoint" />
            <Array as="points">
              <mxPoint x="680" y="1950" />
              <mxPoint x="700" y="240" />
            </Array>
          </mxGeometry>
        </mxCell>
        <mxCell id="RxxKn82uDPs_Dax8n509-69" value="" style="endArrow=block;html=1;rounded=0;strokeWidth=2;endFill=1;exitX=1;exitY=0.5;exitDx=0;exitDy=0;" edge="1" parent="1" source="RxxKn82uDPs_Dax8n509-58">
          <mxGeometry width="50" height="50" relative="1" as="geometry">
            <mxPoint x="390" y="1910" as="sourcePoint" />
            <mxPoint x="670" y="260" as="targetPoint" />
            <Array as="points">
              <mxPoint x="660" y="1890" />
            </Array>
          </mxGeometry>
        </mxCell>
        <mxCell id="RxxKn82uDPs_Dax8n509-70" value="true" style="text;html=1;align=center;verticalAlign=middle;resizable=0;points=[];autosize=1;strokeColor=none;fillColor=none;" vertex="1" parent="1">
          <mxGeometry x="434" y="170" width="40" height="30" as="geometry" />
        </mxCell>
        <mxCell id="RxxKn82uDPs_Dax8n509-71" value="false" style="text;html=1;align=center;verticalAlign=middle;resizable=0;points=[];autosize=1;strokeColor=none;fillColor=none;" vertex="1" parent="1">
          <mxGeometry x="325" y="168" width="50" height="30" as="geometry" />
        </mxCell>
        <mxCell id="RxxKn82uDPs_Dax8n509-72" value="true" style="text;html=1;align=center;verticalAlign=middle;resizable=0;points=[];autosize=1;strokeColor=none;fillColor=none;" vertex="1" parent="1">
          <mxGeometry x="354" y="450" width="40" height="30" as="geometry" />
        </mxCell>
        <mxCell id="RxxKn82uDPs_Dax8n509-73" value="false" style="text;html=1;align=center;verticalAlign=middle;resizable=0;points=[];autosize=1;strokeColor=none;fillColor=none;" vertex="1" parent="1">
          <mxGeometry x="389" y="400" width="50" height="30" as="geometry" />
        </mxCell>
        <mxCell id="RxxKn82uDPs_Dax8n509-74" value="true" style="text;html=1;align=center;verticalAlign=middle;resizable=0;points=[];autosize=1;strokeColor=none;fillColor=none;" vertex="1" parent="1">
          <mxGeometry x="390" y="600" width="40" height="30" as="geometry" />
        </mxCell>
        <mxCell id="RxxKn82uDPs_Dax8n509-75" value="" style="endArrow=block;html=1;rounded=0;strokeWidth=2;endFill=1;entryX=0.5;entryY=0;entryDx=0;entryDy=0;exitX=0;exitY=1;exitDx=0;exitDy=0;" edge="1" parent="1" source="RxxKn82uDPs_Dax8n509-23" target="RxxKn82uDPs_Dax8n509-25">
          <mxGeometry width="50" height="50" relative="1" as="geometry">
            <mxPoint x="330" y="660" as="sourcePoint" />
            <mxPoint x="370" y="590" as="targetPoint" />
          </mxGeometry>
        </mxCell>
        <mxCell id="RxxKn82uDPs_Dax8n509-76" value="false" style="text;html=1;align=center;verticalAlign=middle;resizable=0;points=[];autosize=1;strokeColor=none;fillColor=none;" vertex="1" parent="1">
          <mxGeometry x="284" y="645" width="50" height="30" as="geometry" />
        </mxCell>
        <mxCell id="RxxKn82uDPs_Dax8n509-77" value="false" style="text;html=1;align=center;verticalAlign=middle;resizable=0;points=[];autosize=1;strokeColor=none;fillColor=none;" vertex="1" parent="1">
          <mxGeometry x="240" y="710" width="50" height="30" as="geometry" />
        </mxCell>
        <mxCell id="RxxKn82uDPs_Dax8n509-78" value="true" style="text;html=1;align=center;verticalAlign=middle;resizable=0;points=[];autosize=1;strokeColor=none;fillColor=none;" vertex="1" parent="1">
          <mxGeometry x="360" y="750" width="40" height="30" as="geometry" />
        </mxCell>
        <mxCell id="RxxKn82uDPs_Dax8n509-79" value="true" style="text;html=1;align=center;verticalAlign=middle;resizable=0;points=[];autosize=1;strokeColor=none;fillColor=none;" vertex="1" parent="1">
          <mxGeometry x="420" y="1130" width="40" height="30" as="geometry" />
        </mxCell>
        <mxCell id="RxxKn82uDPs_Dax8n509-80" value="false" style="text;html=1;align=center;verticalAlign=middle;resizable=0;points=[];autosize=1;strokeColor=none;fillColor=none;" vertex="1" parent="1">
          <mxGeometry x="345" y="1180" width="50" height="30" as="geometry" />
        </mxCell>
        <mxCell id="RxxKn82uDPs_Dax8n509-82" value="true" style="text;html=1;align=center;verticalAlign=middle;resizable=0;points=[];autosize=1;strokeColor=none;fillColor=none;" vertex="1" parent="1">
          <mxGeometry x="439" y="1340" width="40" height="30" as="geometry" />
        </mxCell>
        <mxCell id="RxxKn82uDPs_Dax8n509-83" value="false" style="text;html=1;align=center;verticalAlign=middle;resizable=0;points=[];autosize=1;strokeColor=none;fillColor=none;" vertex="1" parent="1">
          <mxGeometry x="310" y="1350" width="50" height="30" as="geometry" />
        </mxCell>
        <mxCell id="RxxKn82uDPs_Dax8n509-84" value="false" style="text;html=1;align=center;verticalAlign=middle;resizable=0;points=[];autosize=1;strokeColor=none;fillColor=none;" vertex="1" parent="1">
          <mxGeometry x="445" y="985" width="50" height="30" as="geometry" />
        </mxCell>
        <mxCell id="RxxKn82uDPs_Dax8n509-85" value="true" style="text;html=1;align=center;verticalAlign=middle;resizable=0;points=[];autosize=1;strokeColor=none;fillColor=none;" vertex="1" parent="1">
          <mxGeometry x="400" y="1020" width="40" height="30" as="geometry" />
        </mxCell>
        <mxCell id="RxxKn82uDPs_Dax8n509-88" value="true" style="text;html=1;align=center;verticalAlign=middle;resizable=0;points=[];autosize=1;strokeColor=none;fillColor=none;" vertex="1" parent="1">
          <mxGeometry x="460" y="1510" width="40" height="30" as="geometry" />
        </mxCell>
        <mxCell id="RxxKn82uDPs_Dax8n509-89" value="false" style="text;html=1;align=center;verticalAlign=middle;resizable=0;points=[];autosize=1;strokeColor=none;fillColor=none;" vertex="1" parent="1">
          <mxGeometry x="215" y="1670" width="50" height="30" as="geometry" />
        </mxCell>
        <mxCell id="RxxKn82uDPs_Dax8n509-90" value="true" style="text;html=1;align=center;verticalAlign=middle;resizable=0;points=[];autosize=1;strokeColor=none;fillColor=none;" vertex="1" parent="1">
          <mxGeometry x="325" y="1650" width="40" height="30" as="geometry" />
        </mxCell>
        <mxCell id="RxxKn82uDPs_Dax8n509-91" value="true" style="text;html=1;align=center;verticalAlign=middle;resizable=0;points=[];autosize=1;strokeColor=none;fillColor=none;" vertex="1" parent="1">
          <mxGeometry x="315" y="1830" width="40" height="30" as="geometry" />
        </mxCell>
        <mxCell id="RxxKn82uDPs_Dax8n509-92" value="false" style="text;html=1;align=center;verticalAlign=middle;resizable=0;points=[];autosize=1;strokeColor=none;fillColor=none;" vertex="1" parent="1">
          <mxGeometry x="215" y="1870" width="50" height="30" as="geometry" />
        </mxCell>
        <mxCell id="RxxKn82uDPs_Dax8n509-93" value="" style="endArrow=block;html=1;rounded=0;strokeWidth=2;endFill=1;exitX=0.5;exitY=1;exitDx=0;exitDy=0;entryX=0.5;entryY=0;entryDx=0;entryDy=0;" edge="1" parent="1" source="RxxKn82uDPs_Dax8n509-47" target="RxxKn82uDPs_Dax8n509-54">
          <mxGeometry width="50" height="50" relative="1" as="geometry">
            <mxPoint x="350" y="1470" as="sourcePoint" />
            <mxPoint x="300" y="1546" as="targetPoint" />
          </mxGeometry>
        </mxCell>
        <mxCell id="RxxKn82uDPs_Dax8n509-94" value="" style="endArrow=block;html=1;rounded=0;strokeWidth=2;endFill=1;exitX=0;exitY=1;exitDx=0;exitDy=0;entryX=1;entryY=0;entryDx=0;entryDy=0;" edge="1" parent="1" source="RxxKn82uDPs_Dax8n509-46" target="RxxKn82uDPs_Dax8n509-54">
          <mxGeometry width="50" height="50" relative="1" as="geometry">
            <mxPoint x="300" y="1480" as="sourcePoint" />
            <mxPoint x="305" y="1630" as="targetPoint" />
          </mxGeometry>
        </mxCell>
        <mxCell id="RxxKn82uDPs_Dax8n509-95" value="return true" style="text;html=1;align=center;verticalAlign=middle;resizable=0;points=[];autosize=1;strokeColor=none;fillColor=none;" vertex="1" parent="1">
          <mxGeometry x="375" y="1860" width="80" height="30" as="geometry" />
        </mxCell>
        <mxCell id="RxxKn82uDPs_Dax8n509-96" value="return false" style="text;html=1;align=center;verticalAlign=middle;resizable=0;points=[];autosize=1;strokeColor=none;fillColor=none;" vertex="1" parent="1">
          <mxGeometry x="269" y="1920" width="80" height="30" as="geometry" />
        </mxCell>
      </root>
    </mxGraphModel>
  </diagram>
</mxfile>
